<?xml version="1.0" encoding="UTF-8" standalone="no"?>
<svg
   xmlns:dc="http://purl.org/dc/elements/1.1/"
   xmlns:cc="http://creativecommons.org/ns#"
   xmlns:rdf="http://www.w3.org/1999/02/22-rdf-syntax-ns#"
   xmlns:svg="http://www.w3.org/2000/svg"
   xmlns="http://www.w3.org/2000/svg"
   xmlns:sodipodi="http://sodipodi.sourceforge.net/DTD/sodipodi-0.dtd"
   xmlns:inkscape="http://www.inkscape.org/namespaces/inkscape"
   class="svg-inline--fa fa-google-plus-g fa-w-20"
   aria-hidden="true"
   data-prefix="fab"
   data-icon="google-plus-g"
   role="img"
   viewBox="0 0 640 512"
   data-fa-i2svg=""
   version="1.1"
   id="svg4530"
   sodipodi:docname="icon-google.svg"
   inkscape:version="0.92.3 (2405546, 2018-03-11)">
  <metadata
     id="metadata4536">
    <rdf:RDF>
      <cc:Work
         rdf:about="">
        <dc:format>image/svg+xml</dc:format>
        <dc:type
           rdf:resource="http://purl.org/dc/dcmitype/StillImage" />
      </cc:Work>
    </rdf:RDF>
  </metadata>
  <defs
     id="defs4534" />
  <sodipodi:namedview
     pagecolor="#ffffff"
     bordercolor="#666666"
     borderopacity="1"
     objecttolerance="10"
     gridtolerance="10"
     guidetolerance="10"
     inkscape:pageopacity="0"
     inkscape:pageshadow="2"
     inkscape:window-width="1857"
     inkscape:window-height="1057"
     id="namedview4532"
     showgrid="false"
     inkscape:zoom="1.6796875"
     inkscape:cx="284.27907"
     inkscape:cy="286.12552"
     inkscape:window-x="55"
     inkscape:window-y="-8"
     inkscape:window-maximized="1"
     inkscape:current-layer="svg4530" />
  <path
     d="m 386.061,228.496 c 1.834,9.692 3.143,19.384 3.143,31.956 C 389.204,370.205 315.599,448 204.8,448 98.716,448 12.8,362.085 12.8,256 c 0,-106.085 85.916,-192 192,-192 51.864,0 95.083,18.859 128.611,50.292 l -52.126,50.03 C 267.14,150.701 242.257,134.723 204.8,134.723 139.316,134.723 85.88,188.944 85.88,256 c 0,67.056 53.436,121.277 118.92,121.277 75.961,0 104.513,-54.745 108.965,-82.773 H 204.8 v -66.009 h 181.261 z m 129.406,6.437 V 179.2 h -56.001 v 55.733 h -55.733 v 56.001 h 55.733 v 55.733 h 56.001 V 290.934 H 571.2 v -56.001 z"
     id="path4528"
     inkscape:connector-curvature="0"
     style="fill:#ffffff"
     sodipodi:nodetypes="cssssccssscccccccccccccccccc" />
</svg>
